<?xml version="1.0" standalone="no"?>
<!DOCTYPE svg PUBLIC "-//W3C//DTD SVG 20010904//EN"
 "http://www.w3.org/TR/2001/REC-SVG-20010904/DTD/svg10.dtd">
<svg version="1.0" xmlns="http://www.w3.org/2000/svg"
 width="512.000000pt" height="512.000000pt" viewBox="0 0 512.000000 512.000000"
 preserveAspectRatio="xMidYMid meet">
<metadata>
Created by potrace 1.14, written by Peter Selinger 2001-2017
</metadata>
<g transform="translate(0.000000,512.000000) scale(0.100000,-0.100000)"
fill="#000000" stroke="none">
<path d="M185 4935 l-25 -24 0 -1471 0 -1471 25 -24 c24 -25 25 -25 220 -25
l195 0 0 -57 c0 -32 3 -68 6 -80 6 -23 6 -23 -115 -23 -116 0 -123 -1 -146
-25 -33 -32 -33 -78 0 -110 23 -24 30 -25 150 -25 69 0 125 -4 125 -9 0 -5 20
-281 45 -613 25 -331 45 -615 45 -630 l0 -28 -250 0 -251 0 -24 -25 c-33 -32
-33 -78 0 -110 l24 -25 2351 0 2351 0 24 25 c33 32 33 78 0 110 l-24 25 -286
0 -286 0 19 28 c28 40 44 96 41 147 -3 43 1 50 58 118 158 189 263 400 314
635 16 76 22 145 26 318 5 220 2 258 -33 342 -4 9 13 12 71 12 67 0 79 3 100
25 l25 24 0 1471 0 1471 -25 24 -24 25 -2351 0 -2351 0 -24 -25z m4615 -1495
l0 -1360 -172 1 -173 0 -30 42 c-46 63 -145 111 -241 115 -62 4 -81 0 -129
-22 l-57 -26 -37 20 c-34 17 -39 24 -43 65 -8 66 -53 134 -114 170 -34 20 -59
45 -79 79 -20 33 -47 61 -79 81 -44 27 -58 30 -126 30 -68 0 -82 -3 -126 -30
-32 -20 -59 -48 -79 -81 -20 -34 -45 -59 -79 -79 -62 -37 -107 -105 -114 -173
-4 -43 -8 -50 -43 -69 l-39 -21 -48 26 c-88 50 -238 31 -334 -42 -24 -18 -49
-45 -57 -60 l-14 -26 -224 0 c-254 0 -228 -12 -217 99 6 51 10 61 26 61 27 0
68 45 68 75 0 14 -19 101 -42 192 -31 124 -48 173 -64 190 l-23 23 -339 0
-338 0 -37 289 c-19 160 -41 299 -47 311 -13 25 -359 200 -395 200 -54 0 -92
-70 -65 -121 6 -11 78 -53 160 -94 83 -41 150 -76 151 -78 0 -1 15 -116 33
-254 l32 -253 -328 0 c-329 0 -329 0 -352 -23 -16 -17 -33 -66 -64 -190 -23
-91 -42 -178 -42 -192 0 -31 41 -75 70 -75 13 0 20 -7 20 -19 0 -10 3 -46 6
-80 l7 -61 -132 0 -131 0 0 1360 0 1360 2240 0 2240 0 0 -1360z m-2762 -960
l20 -80 -698 0 -698 0 20 80 20 80 658 0 658 0 20 -80z m1530 -16 c14 -9 24
-30 29 -57 8 -52 42 -87 83 -87 41 0 80 -39 80 -80 0 -41 -39 -80 -80 -80 -20
0 -41 -11 -67 -35 -61 -58 -124 -58 -185 -1 -22 21 -49 35 -76 39 -46 8 -72
36 -72 80 0 38 40 77 80 77 41 0 80 39 80 80 0 63 75 101 128 64z m697 -414
c19 -12 42 -40 54 -65 26 -55 44 -65 123 -65 88 0 145 -29 176 -90 18 -36 22
-61 22 -137 l0 -93 -1120 0 -1120 0 0 93 c0 76 4 101 23 137 30 61 87 90 175
90 79 0 97 10 123 65 15 33 32 49 63 65 65 31 114 27 177 -17 29 -20 65 -36
79 -36 14 0 50 16 79 36 29 21 58 37 63 37 5 0 24 -11 41 -24 18 -13 48 -29
68 -35 20 -7 44 -20 54 -31 26 -28 118 -60 175 -60 57 0 149 32 175 60 10 11
35 25 56 30 21 6 52 22 69 36 36 31 60 28 115 -16 46 -36 83 -38 122 -6 73 61
139 69 208 26z m-2022 -582 c10 -203 51 -363 137 -543 111 -231 280 -428 478
-558 l63 -42 -452 -3 c-249 -1 -454 0 -457 3 -4 4 67 1027 85 1213 l6 62 67 0
67 0 6 -132z m1805 -764 c14 -9 24 -30 29 -57 8 -52 42 -87 83 -87 41 0 80
-39 80 -80 0 -41 -39 -80 -80 -80 -20 0 -41 -11 -67 -35 -62 -58 -124 -58
-186 0 -26 24 -47 35 -67 35 -70 0 -105 86 -55 135 15 16 36 25 55 25 41 0 80
39 80 80 0 63 75 101 128 64z"/>
<path d="M2411 4390 c-299 -63 -530 -275 -623 -570 -20 -64 -23 -96 -23 -220
0 -124 3 -156 23 -220 85 -271 281 -467 552 -552 64 -20 96 -23 220 -23 124 0
156 3 220 23 271 85 467 281 552 552 20 64 23 96 23 220 0 124 -3 156 -23 220
-87 274 -274 463 -547 550 -79 25 -294 37 -374 20z m347 -184 c103 -35 175
-80 257 -161 149 -148 215 -373 169 -578 -56 -248 -244 -436 -491 -491 -206
-46 -430 20 -578 169 -121 122 -181 254 -191 420 -19 307 195 591 498 660 92
22 243 13 336 -19z"/>
<path d="M2345 3895 l-25 -24 0 -271 0 -271 25 -24 c14 -15 35 -25 52 -25 15
1 145 60 288 133 221 112 261 136 269 160 22 63 12 72 -269 214 -143 73 -273
132 -288 133 -17 0 -38 -10 -52 -25z"/>
<path d="M4130 3173 c-40 -21 -64 -43 -87 -78 -18 -28 -36 -53 -40 -58 -5 -4
-30 -22 -58 -40 -65 -42 -105 -116 -105 -193 0 -103 47 -175 147 -226 37 -19
91 -48 118 -64 45 -26 59 -29 135 -29 76 0 90 3 135 29 28 16 81 45 119 64
106 54 152 132 144 242 -6 79 -46 145 -114 185 -34 20 -59 45 -79 79 -42 71
-107 109 -194 114 -57 3 -73 0 -121 -25z m158 -149 c14 -9 24 -30 29 -57 8
-52 42 -87 83 -87 41 0 80 -39 80 -80 0 -41 -39 -80 -80 -80 -20 0 -41 -11
-67 -35 -40 -37 -77 -50 -121 -40 -16 3 -45 21 -65 40 -26 24 -47 35 -67 35
-70 0 -105 86 -55 135 15 16 36 25 55 25 19 0 40 9 55 25 16 15 25 36 25 55 0
63 75 101 128 64z"/>
</g>
</svg>
