<?xml version="1.0" standalone="no"?>
<!DOCTYPE svg PUBLIC "-//W3C//DTD SVG 20010904//EN"
 "http://www.w3.org/TR/2001/REC-SVG-20010904/DTD/svg10.dtd">
<svg version="1.0" xmlns="http://www.w3.org/2000/svg"
 width="512.000000pt" height="512.000000pt" viewBox="0 0 512.000000 512.000000"
 preserveAspectRatio="xMidYMid meet">
<metadata>
Created by potrace 1.14, written by Peter Selinger 2001-2017
</metadata>
<g transform="translate(0.000000,512.000000) scale(0.100000,-0.100000)"
fill="#000000" stroke="none">
<path d="M1574 4942 c-62 -22 -121 -67 -158 -121 -56 -81 -56 -77 -56 -797 l0
-663 -212 -3 -213 -3 -65 -31 c-84 -40 -155 -111 -194 -194 l-31 -65 0 -1140
0 -1140 32 -67 c40 -84 98 -148 169 -184 45 -24 54 -33 49 -49 -30 -100 -11
-180 59 -250 102 -101 230 -101 332 0 59 59 80 117 71 195 l-6 50 327 0 328 0
-4 -65 c-5 -80 19 -137 83 -193 93 -82 207 -83 309 -2 73 57 107 173 76 254
-9 24 -6 28 38 50 67 34 138 110 174 186 18 36 33 67 35 69 1 2 145 -65 320
-149 175 -85 356 -171 403 -192 47 -22 99 -45 116 -53 17 -8 91 -44 165 -80
74 -36 144 -65 156 -65 12 0 33 10 46 22 14 13 101 181 197 383 94 198 179
374 189 390 10 17 138 282 285 590 147 308 289 606 316 663 65 133 65 160 -2
199 -18 11 -355 174 -748 363 -681 328 -718 345 -780 348 -81 5 -144 -21 -193
-79 -18 -21 -128 -238 -247 -487 l-215 -448 -5 440 -5 441 -31 65 c-39 83
-111 155 -194 194 l-65 31 -212 3 -212 3 -3 687 -3 687 -23 43 c-59 111 -154
173 -275 179 -52 3 -86 -1 -123 -15z m172 -161 c25 -12 50 -33 65 -57 l24 -39
3 -662 3 -663 -161 0 -160 0 0 653 0 653 23 44 c16 33 34 51 67 68 54 27 82
27 136 3z m-386 -1781 l0 -200 80 0 80 0 0 200 0 200 160 0 160 0 0 -200 0
-200 80 0 80 0 0 200 0 200 168 0 c206 0 254 -11 317 -75 76 -75 75 -69 75
-717 l0 -568 -136 -283 c-75 -155 -142 -299 -150 -321 -22 -59 -18 -125 11
-182 34 -68 53 -84 172 -143 l102 -51 -14 -46 c-19 -63 -61 -113 -121 -144
l-48 -25 -675 -3 c-768 -3 -749 -5 -826 73 -79 79 -75 12 -75 1205 0 1193 -4
1126 75 1205 63 64 105 73 313 74 l172 1 0 -200z m2628 -251 c334 -160 646
-311 694 -335 l88 -44 -32 -65 c-18 -36 -37 -65 -42 -65 -5 0 -319 149 -697
331 -613 295 -689 334 -699 360 -21 49 15 106 68 108 7 1 286 -130 620 -290z
m-759 17 c9 -7 326 -163 705 -345 379 -182 691 -333 694 -335 4 -5 -774 -1632
-788 -1649 -4 -4 -256 112 -561 259 -305 146 -617 297 -695 334 -121 58 -142
71 -154 99 -10 25 -10 37 -1 59 88 194 767 1592 775 1592 5 0 17 -6 25 -14z"/>
<path d="M1120 1720 l0 -920 80 0 80 0 0 920 0 920 -80 0 -80 0 0 -920z"/>
<path d="M1600 1720 l0 -920 80 0 80 0 0 920 0 920 -80 0 -80 0 0 -920z"/>
<path d="M2080 1720 l0 -920 80 0 80 0 0 920 0 920 -80 0 -80 0 0 -920z"/>
<path d="M3463 2325 c-80 -22 -120 -41 -190 -91 -176 -125 -264 -352 -219
-562 47 -221 217 -390 441 -437 341 -71 664 196 665 550 0 250 -174 475 -420
540 -69 18 -209 18 -277 0z m89 -213 c-38 -38 -82 -87 -97 -110 -15 -23 -29
-42 -31 -42 -11 0 -134 65 -134 71 0 14 85 81 132 105 55 28 106 42 162 43
l38 1 -70 -68z m175 -139 c-6 -71 -22 -143 -33 -143 -5 0 -107 50 -113 56 -11
10 127 164 147 164 3 0 2 -35 -1 -77z m237 -33 c27 -57 31 -76 31 -152 0 -47
-3 -89 -6 -93 -5 -5 -120 45 -137 60 -1 1 7 37 18 80 11 43 20 110 20 149 l1
71 21 -25 c11 -14 35 -54 52 -90z m-676 -97 c52 -23 63 -31 59 -48 -28 -115
-37 -169 -37 -220 l-1 -60 -21 25 c-31 37 -66 119 -78 180 -10 52 -4 150 9
150 3 0 34 -12 69 -27z m335 -163 c9 -8 -129 -160 -145 -160 -12 0 -4 108 13
177 l11 41 56 -25 c32 -14 61 -29 65 -33z m226 -106 c34 -15 61 -31 61 -36 0
-20 -77 -81 -140 -111 -45 -22 -85 -33 -128 -35 l-63 -4 70 67 c38 37 82 85
97 106 15 21 30 39 35 39 4 0 35 -12 68 -26z"/>
<path d="M2857 1165 l-36 -72 357 -172 c196 -94 360 -171 363 -171 7 0 74 139
68 143 -2 1 -80 40 -174 84 -93 45 -254 122 -356 171 l-186 89 -36 -72z"/>
<path d="M2380 4954 c-19 -2 -79 -9 -134 -15 l-98 -12 6 -51 c4 -28 9 -65 12
-82 l5 -30 92 14 c56 8 178 14 313 14 l222 0 4 77 c3 42 3 78 2 80 -4 5 -383
10 -424 5z"/>
<path d="M3829 4845 l-226 -114 -84 51 c-46 28 -104 59 -129 68 -154 60 -323
17 -448 -114 -70 -73 -79 -107 -39 -149 24 -27 1330 -827 1390 -852 20 -8 58
-15 84 -15 87 0 132 31 326 227 223 225 218 206 74 350 -83 83 -109 103 -132
103 -19 0 -66 -24 -137 -71 l-108 -72 -180 119 c-99 65 -180 122 -180 125 0 3
45 66 100 139 124 166 125 169 37 257 -50 49 -70 63 -93 62 -16 0 -128 -50
-255 -114z m106 -212 c-94 -124 -106 -153 -86 -192 15 -28 523 -361 551 -361
14 0 68 28 122 65 54 36 101 65 106 65 5 0 19 -11 32 -25 l24 -26 -136 -136
c-122 -122 -141 -137 -170 -136 -25 0 -178 88 -658 383 -344 210 -626 383
-628 385 -8 7 69 45 111 55 70 15 124 -1 256 -80 64 -39 128 -70 141 -69 14 0
113 45 220 99 107 54 198 99 203 99 4 1 -35 -56 -88 -126z"/>
<path d="M1060 4433 c-174 -137 -369 -351 -497 -543 -407 -609 -512 -1383
-283 -2080 37 -114 120 -310 130 -310 5 0 38 14 75 30 53 24 66 34 62 48 -3 9
-31 78 -61 152 -273 667 -195 1450 204 2054 135 204 307 393 478 525 l82 64
-17 26 c-23 35 -77 101 -83 101 -3 0 -44 -30 -90 -67z"/>
<path d="M2576 4025 c-78 -22 -167 -70 -230 -125 -66 -58 -96 -75 -148 -84
l-38 -7 0 -81 0 -80 53 4 c70 6 148 44 232 113 82 68 125 89 216 106 56 10 77
9 141 -5 83 -18 134 -47 220 -123 105 -91 230 -100 330 -22 52 41 82 51 115
38 15 -5 90 -72 168 -147 77 -75 180 -165 228 -199 224 -157 521 -267 783
-289 l82 -7 16 -74 c9 -41 24 -133 33 -205 l17 -130 51 6 c27 3 62 6 78 6 25
0 27 3 27 40 0 104 -56 385 -110 550 -31 94 -115 298 -130 313 -11 12 -152
-54 -146 -68 53 -116 106 -243 106 -252 0 -18 -22 -16 -145 7 -205 40 -411
128 -578 247 -44 32 -144 120 -222 195 -157 152 -198 177 -285 178 -55 0 -149
-34 -165 -60 -4 -7 -22 -18 -41 -26 -43 -18 -72 -7 -139 54 -63 58 -150 105
-231 126 -75 19 -219 20 -288 1z"/>
<path d="M3150 404 c-117 -33 -284 -63 -410 -72 l-105 -7 4 -80 c2 -44 4 -81
6 -83 6 -7 256 20 350 38 134 26 305 72 305 84 0 28 -43 146 -53 145 -7 0 -50
-12 -97 -25z"/>
</g>
</svg>
